<svg xmlns="http://www.w3.org/2000/svg" xmlns:xlink="http://www.w3.org/1999/xlink" width="185" zoomAndPan="magnify" viewBox="0 0 138.75 148.499996" height="198" preserveAspectRatio="xMidYMid meet" version="1.0"><defs><clipPath id="06bc4686af"><path d="M 0.109375 9.921875 L 93.738281 9.921875 L 93.738281 147.253906 L 0.109375 147.253906 Z M 0.109375 9.921875 " clip-rule="nonzero"/></clipPath><clipPath id="5ed6bb4351"><path d="M 127.742188 16.296875 L 138.394531 16.296875 L 138.394531 28.300781 L 127.742188 28.300781 Z M 127.742188 16.296875 " clip-rule="nonzero"/></clipPath></defs><g clip-path="url(#06bc4686af)"><path fill="#ffffff" d="M 11.796875 32.980469 C 21.109375 17.246094 40.414062 9.625 63.402344 10.3125 C 38.195312 8.191406 16.316406 16.058594 6.015625 33.46875 C -11.027344 62.273438 10.066406 106.28125 53.128906 131.761719 C 66.464844 139.652344 80.339844 144.835938 93.652344 147.382812 C 83.453125 144.21875 73.085938 139.65625 62.980469 133.675781 C 17.671875 106.867188 -5.246094 61.785156 11.796875 32.980469 " fill-opacity="1" fill-rule="nonzero"/></g><path fill="#ffffff" d="M 38.921875 38.070312 C 48.519531 21.851562 68.835938 14.472656 92.269531 16.351562 C 65.996094 12.332031 42.589844 19.492188 32.070312 37.273438 C 16.113281 64.238281 35.835938 105.421875 76.121094 129.257812 C 92.175781 138.757812 109.074219 144.0625 124.605469 145.304688 C 111.03125 143.230469 96.695312 138.175781 82.972656 130.054688 C 42.6875 106.222656 22.96875 65.039062 38.921875 38.070312 " fill-opacity="1" fill-rule="nonzero"/><path fill="#e76515" d="M 64.835938 11.160156 C 43.839844 10.832031 25.996094 18.269531 17.1875 33.15625 C 8.378906 48.046875 10.449219 67.265625 20.847656 85.511719 C 15.441406 68.914062 16.296875 51.859375 24.722656 37.617188 C 33.152344 23.371094 47.6875 14.414062 64.835938 11.160156 " fill-opacity="1" fill-rule="nonzero"/><g clip-path="url(#5ed6bb4351)"><path fill="#ffffff" d="M 129.945312 16.332031 C 129.945312 16.332031 133.324219 21.789062 127.828125 27.578125 C 127.828125 27.578125 136.226562 30.492188 138.117188 24.507812 C 139.949219 18.722656 132.210938 16.988281 129.945312 16.332031 " fill-opacity="1" fill-rule="nonzero"/></g><path fill="#ffffff" d="M 122.765625 25.210938 L 122.59375 22.40625 L 124.789062 22.351562 L 124.882812 25.15625 Z M 122.34375 18.28125 L 124.667969 18.601562 L 124.769531 21.761719 L 122.53125 21.40625 Z M 122.097656 14.269531 L 124.558594 15.3125 L 124.644531 17.980469 L 122.277344 17.234375 Z M 125.46875 22.332031 L 127.941406 22.265625 L 125.488281 21.875 L 125.609375 18.730469 L 128.132812 19.078125 L 125.628906 18.289062 L 125.726562 15.804688 L 128.449219 16.953125 L 106.132812 0.046875 L 102.25 5.882812 L 121.25 13.910156 L 121.433594 16.96875 L 98.054688 9.613281 L 96.339844 14.710938 L 121.503906 18.167969 L 121.691406 21.269531 L 96.261719 17.214844 L 97.332031 23.070312 L 121.757812 22.429688 L 121.925781 25.234375 L 99.351562 25.824219 L 102.511719 31.53125 L 127.277344 25.09375 L 125.355469 25.144531 L 125.46875 22.332031 " fill-opacity="1" fill-rule="nonzero"/></svg>